<svg version="1.1" xmlns="http://www.w3.org/2000/svg" xmlns:xlink="http://www.w3.org/1999/xlink" x="0px" y="0px" viewBox="150 75 500 150" style="enable-background:new 0 0 800 800;" xml:space="preserve">
		<g>
				<linearGradient id="SVGID_00000080177717153708809530000004851598729185244556_" gradientUnits="userSpaceOnUse" x1="503.208" y1="144.3293" x2="648.7695" y2="144.3293">
				<stop  offset="0" style="stop-color:#19191B"/>
				<stop  offset="0.04" style="stop-color:#1B1B1D"/>
				<stop  offset="0.2177" style="stop-color:#202022"/>
				<stop  offset="0.4341" style="stop-color:#2F2F33"/>
				<stop  offset="0.6129" style="stop-color:#37373B"/>
				<stop  offset="0.8665" style="stop-color:#28282B"/>
				<stop  offset="0.879" style="stop-color:#27272A"/>
				<stop  offset="1" style="stop-color:#272729"/>
			</linearGradient>
			<path style="fill:url(#SVGID_00000080177717153708809530000004851598729185244556_);" d="M510.697,88.312
				c26.963-8.084,60.014-1.931,86.209,10.945c26.445,12.439,46.035,31.601,51.863,39.471c-3.626,1.539-7.311,3.174-11.053,4.905
				c1.409,6.072,2.81,12.157,4.201,18.257c-3.221,0.496-6.486,1.063-9.793,1.705c1.344,6.214,2.681,12.44,4.01,18.679
				c-3.539,0.021-7.127,0.128-10.763,0.319c1.335,7.119,2.664,14.25,3.986,21.393c-21.215-19.983-54.266-37.998-126.15-35.643
				C505.711,141.637,508.208,114.96,510.697,88.312z"/>
			
				<linearGradient id="SVGID_00000047761215142821040120000013691712432485967287_" gradientUnits="userSpaceOnUse" x1="151.2305" y1="144.3316" x2="296.793" y2="144.3316">
				<stop  offset="0" style="stop-color:#19191B"/>
				<stop  offset="0.04" style="stop-color:#1B1B1D"/>
				<stop  offset="0.2177" style="stop-color:#202022"/>
				<stop  offset="0.4341" style="stop-color:#2F2F33"/>
				<stop  offset="0.6129" style="stop-color:#37373B"/>
				<stop  offset="0.8665" style="stop-color:#28282B"/>
				<stop  offset="0.879" style="stop-color:#27272A"/>
				<stop  offset="1" style="stop-color:#272729"/>
			</linearGradient>
			<path style="fill:url(#SVGID_00000047761215142821040120000013691712432485967287_);" d="M289.287,88.317
				c-26.959-8.085-60.007-1.931-86.199,10.943c-26.443,12.438-46.031,31.599-51.857,39.467c3.623,1.542,7.307,3.178,11.046,4.911
				c-1.406,6.07-2.805,12.154-4.195,18.251c3.219,0.499,6.48,1.07,9.783,1.713c-1.34,6.212-2.674,12.435-4,18.67
				c3.539,0.021,7.128,0.128,10.763,0.319c-1.335,7.119-2.663,14.25-3.985,21.392c21.205-19.974,54.253-37.993,126.151-35.642
				C294.284,141.638,291.782,114.963,289.287,88.317z"/>
			<g>
				<path d="M596.897,128.345c0.038-0.058-19.294-17.761-38.056-27.498c-18.563-10.405-48.092-12.775-48.145-12.535
					c-2.489,26.648-4.986,53.325-7.489,80.03c28.707,8.502,56.513,20.758,82.646,36.767
					C589.57,179.445,593.252,153.857,596.897,128.345z"/>
				<path d="M203.094,128.351c-0.037-0.058,19.291-17.76,38.053-27.498c18.559-10.404,48.088-12.777,48.141-12.536
					c2.495,26.646,4.997,53.321,7.506,80.025c-28.708,8.502-56.514,20.758-82.648,36.767
					C210.428,179.446,206.742,153.86,203.094,128.351z"/>
			</g>
			
				<linearGradient id="SVGID_00000011720789408516762090000015303465267436307077_" gradientUnits="userSpaceOnUse" x1="203.0938" y1="159.5904" x2="596.8975" y2="159.5904">
				<stop  offset="0" style="stop-color:#19191A"/>
				<stop  offset="0.2508" style="stop-color:#2C2C30"/>
				<stop  offset="0.4777" style="stop-color:#2D2D31"/>
				<stop  offset="0.8746" style="stop-color:#262629"/>
				<stop  offset="0.998" style="stop-color:#19191B"/>
			</linearGradient>
			<path style="fill:url(#SVGID_00000011720789408516762090000015303465267436307077_);" d="M203.094,128.351
				c24.857-16.671,46.229-14.888,75.13-13.292c28.954,2.263,65.436,4.339,121.773,3.632c56.335,0.706,92.818-1.372,121.773-3.635
				c28.9-1.597,50.273-3.378,75.127,13.289c-3.645,25.512-7.327,51.1-11.044,76.763c-22.714-14.055-44-13.119-72.129-11.727
				c-28.148,1.86-63.139,4.176-113.728,3.708c-50.585,0.469-85.572-1.848-113.72-3.709c-28.127-1.393-49.413-2.33-72.132,11.728
				C210.428,179.446,206.742,153.86,203.094,128.351z"/>
		</g>
</svg>