<svg xmlns="http://www.w3.org/2000/svg" viewBox="0 0 180 25" fill='#CE122D'><path d="M21.8 15.7a9 9 0 0 1 9.4-9.3c5.7 0 9.4 4 9.4 9.3S36.9 25 31.2 25a9 9 0 0 1-9.4-9.3zm13.2 0c0-3.2-1.3-5.3-3.7-5.3s-3.7 2.2-3.7 5.3c0 3.2 1.3 5.3 3.7 5.3 2.3 0 3.7-2.1 3.7-5.3zm8-8.8h5.4v2.5h.1c1.1-1.8 2.8-3 5.3-3 2.3 0 4.1 1.2 5 3.1h.1a6.4 6.4 0 0 1 5.5-3.1c4 0 6 2.7 6 6.6v11.4h-5.6V14.1c0-1.9-.8-3-2.5-3-1.8 0-2.8 1.5-2.8 3.6v9.8h-5.6V14.1c0-1.9-.8-3-2.5-3-1.8 0-2.8 1.5-2.8 3.6v9.8H43zm30.5 0h5.4v2.5h.1c1.1-1.8 2.8-3 5.3-3 2.3 0 4.1 1.2 5 3.1h.1a6.4 6.4 0 0 1 5.5-3.1c4 0 6 2.7 6 6.6v11.4h-5.6V14.1c0-1.9-.8-3-2.5-3-1.8 0-2.8 1.5-2.8 3.6v9.8h-5.6V14.1c0-1.9-.8-3-2.5-3-1.8 0-2.8 1.5-2.8 3.6v9.8h-5.6zm30.3 11.5V6.9h5.6v10.3c0 1.9.9 3 2.6 3 1.9 0 3.1-1.4 3.1-3.5V6.9h5.6v17.5h-5.4v-2.2h-.1A5.8 5.8 0 0 1 110 25c-4.1 0-6.2-2.7-6.2-6.6zM124 6.9h5.4v2.4h.1c1.3-1.9 3-2.9 5.4-2.9 3.9 0 6.1 2.7 6.1 6.6v11.4h-5.6V14.2c0-1.8-.9-3.1-2.8-3.1s-3.1 1.5-3.1 3.7v9.7H124zm19.3 12.7c0-3.9 3.1-5 6.7-5.5 3.3-.4 4.5-.8 4.5-1.9s-.7-1.9-2.4-1.9c-1.8 0-2.7.8-2.9 2.3H144c.1-3.2 2.6-6 8-6 2.6 0 4.4.5 5.7 1.4 1.5 1.1 2.2 2.8 2.2 5v8.8c0 1.4.1 2.2.6 2.5v.2h-5.4c-.3-.4-.4-1.1-.6-1.9h-.1c-1 1.5-2.6 2.4-5.2 2.4-3.4-.1-5.9-2-5.9-5.4zm11.4-1.4v-2.1c-.7.4-1.8.6-2.9.9-2.2.5-3.1 1-3.1 2.4s1 1.9 2.4 1.9c2.1 0 3.6-1.2 3.6-3.1zM163.3 0h5.7v24.5h-5.7zm12.4 16.4c-2.4 0-4.3 1.9-4.3 4.3s1.9 4.3 4.3 4.3 4.3-1.9 4.3-4.3-1.9-4.3-4.3-4.3zm0 6.4c-1.2 0-2.1-1-2.1-2.1 0-1.2 1-2.1 2.1-2.1 1.2 0 2.1 1 2.1 2.1.1 1.1-.9 2.1-2.1 2.1z"></path><path d="M12.3 9.8 21.8 0h-7.3L0 15.2v9.3h6.1V16l2-2.1 7.1 10.6h7.1zM6.1 0H0v12.3l6.1-6.4z"></path></svg>